<?xml version="1.0" standalone="no"?>
<!DOCTYPE svg PUBLIC "-//W3C//DTD SVG 20010904//EN"
 "http://www.w3.org/TR/2001/REC-SVG-20010904/DTD/svg10.dtd">
<svg version="1.0" xmlns="http://www.w3.org/2000/svg"
 width="1024.000000pt" height="1024.000000pt" viewBox="0 0 1024.000000 1024.000000"
 preserveAspectRatio="xMidYMid meet">
<metadata>
Created by potrace 1.14, written by Peter Selinger 2001-2017
</metadata>
<g transform="translate(0.000000,1024.000000) scale(0.100000,-0.100000)"
fill="#000000" stroke="none">
<path d="M0 5120 l0 -5120 5120 0 5120 0 0 5120 0 5120 -5120 0 -5120 0 0
-5120z m1978 4493 c-16 -2 -40 -2 -55 0 -16 2 -3 4 27 4 30 0 43 -2 28 -4z
m6340 0 c-16 -2 -40 -2 -55 0 -16 2 -3 4 27 4 30 0 43 -2 28 -4z m-6435 -10
c-7 -2 -19 -2 -25 0 -7 3 -2 5 12 5 14 0 19 -2 13 -5z m6500 0 c-7 -2 -19 -2
-25 0 -7 3 -2 5 12 5 14 0 19 -2 13 -5z m-6603 -27 c-282 -99 -497 -328 -569
-606 -11 -41 -20 -65 -20 -54 -1 33 38 152 71 219 80 160 237 319 392 397 68
34 153 67 176 67 8 0 -14 -11 -50 -23z m6691 5 c125 -43 251 -123 339 -217 44
-47 43 -47 -15 7 -112 102 -205 159 -335 205 -36 12 -60 23 -54 23 6 1 35 -7
65 -18z m446 -348 c28 -43 59 -93 68 -112 23 -46 55 -140 55 -160 -1 -9 -11
16 -24 54 -27 85 -72 172 -126 243 -22 28 -36 52 -32 52 4 0 31 -35 59 -77z
m130 -315 c-3 -8 -6 -5 -6 6 -1 11 2 17 5 13 3 -3 4 -12 1 -19z m10 -5680 c-1
-1041 -2 -192 -2 1887 0 2079 1 2931 2 1893 2 -1037 2 -2738 0 -3780z m-7870
-1 c-1 -1035 -2 -185 -2 1888 0 2074 1 2920 2 1882 2 -1039 2 -2735 0 -3770z
m5246 5256 c-722 -2 -1904 -2 -2625 0 -722 1 -132 2 1312 2 1444 0 2034 -1
1313 -2z m-3973 -19 c-19 -8 -43 -23 -54 -32 -11 -9 -16 -11 -12 -4 11 18 67
52 86 52 8 -1 -1 -8 -20 -16z m5348 -4 c17 -11 32 -23 32 -26 0 -4 -6 -2 -13
4 -7 7 -29 18 -48 26 -19 9 -27 15 -19 16 8 0 30 -9 48 -20z m63 -47 c13 -16
12 -17 -3 -4 -10 7 -18 15 -18 17 0 8 8 3 21 -13z m-5527 -48 c-9 -14 -20 -40
-24 -58 -7 -27 -8 -28 -9 -7 -1 23 32 90 44 90 3 0 -2 -11 -11 -25z m5566 -7
c11 -18 19 -44 19 -58 -1 -21 -2 -20 -9 7 -4 18 -15 44 -24 58 -9 14 -14 25
-11 25 3 0 14 -15 25 -32z m-5603 -1456 c-1 -251 -2 -45 -2 458 0 503 1 709 2
457 2 -251 2 -663 0 -915z m5630 0 c-1 -251 -2 -45 -2 458 0 503 1 709 2 457
2 -251 2 -663 0 -915z m-5580 -565 c18 -21 18 -21 -1 -7 -21 17 -46 70 -45 97
0 10 6 -1 14 -25 7 -24 22 -53 32 -65z m5570 71 c-3 -7 -5 -2 -5 12 0 14 2 19
5 13 2 -7 2 -19 0 -25z m-7 -27 c0 -6 -11 -23 -25 -38 l-26 -28 23 37 c25 40
28 43 28 29z m-5460 -125 c19 -8 29 -15 22 -16 -20 0 -67 26 -83 47 -13 17
-13 17 6 1 12 -9 36 -24 55 -32z m5380 29 c0 -9 -64 -45 -80 -45 -8 0 6 11 30
24 25 13 46 24 48 25 1 0 2 -1 2 -4z m-1407 -52 c-722 -2 -1904 -2 -2625 0
-722 1 -132 2 1312 2 1444 0 2034 -1 1313 -2z m-3933 -1132 c-88 -18 -159 -87
-181 -176 -6 -24 -7 -26 -8 -7 -3 74 117 192 194 190 29 0 29 0 -5 -7z m816
-23 c53 -36 114 -117 114 -152 -1 -14 -5 -9 -14 17 -28 78 -100 143 -175 158
l-36 7 31 1 c21 1 49 -11 80 -31z m1434 23 c-86 -17 -153 -81 -181 -171 -5
-17 -8 -19 -8 -7 -3 70 120 187 194 185 29 0 29 0 -5 -7z m800 -12 c71 -43
131 -119 130 -166 -1 -10 -7 0 -15 21 -8 22 -22 51 -33 65 -28 39 -96 83 -139
91 -35 7 -35 8 -8 9 17 0 46 -9 65 -20z m1449 12 c-75 -15 -147 -80 -175 -158
-9 -26 -13 -31 -14 -17 -1 62 129 185 194 183 l31 -1 -36 -7z m794 -7 c66 -34
138 -124 136 -171 0 -12 -3 -9 -8 8 -28 89 -95 152 -181 170 -32 6 -32 7 -7 8
15 0 42 -6 60 -15z m-5486 -721 c-1 -98 -2 -20 -2 172 -1 193 1 273 2 178 2
-94 2 -252 0 -350z m1130 0 c-1 -98 -2 -20 -2 172 -1 193 1 273 2 178 2 -94 2
-252 0 -350z m1120 0 c-1 -98 -2 -20 -2 172 -1 193 1 273 2 178 2 -94 2 -252
0 -350z m1130 0 c-1 -98 -2 -20 -2 172 -1 193 1 273 2 178 2 -94 2 -252 0
-350z m1120 -1690 c-1 -406 -2 -74 -2 737 0 811 1 1143 2 738 2 -406 2 -1070
0 -1475z m1130 0 c-1 -406 -2 -74 -2 737 0 811 1 1143 2 738 2 -406 2 -1070 0
-1475z m-5580 1404 c18 -21 18 -21 -1 -7 -21 17 -46 70 -45 97 0 10 6 -1 14
-25 7 -24 22 -53 32 -65z m1054 34 c-12 -22 -25 -42 -30 -46 -6 -3 1 14 14 37
14 24 25 52 26 63 1 16 2 16 6 3 2 -9 -5 -35 -16 -57z m1196 -34 c18 -21 18
-21 -1 -7 -21 17 -46 70 -45 97 0 10 6 -1 14 -25 7 -24 22 -53 32 -65z m1063
49 c-6 -18 -20 -42 -32 -52 l-22 -19 22 29 c12 15 25 44 28 65 4 20 9 30 11
24 3 -7 0 -28 -7 -47z m-50 -80 c0 -9 -95 -66 -109 -66 -9 1 -1 7 17 15 18 8
45 24 59 35 26 20 33 24 33 16z m-2281 -22 c-15 -18 -63 -44 -81 -44 -7 0 6 9
28 19 23 10 45 24 48 30 4 6 10 11 13 11 3 0 0 -7 -8 -16z m-860 -42 c-9 -4
-66 24 -73 36 -3 5 14 -1 38 -12 23 -12 39 -22 35 -24z m2250 0 c-9 -4 -66 24
-73 36 -3 5 14 -1 38 -12 23 -12 39 -22 35 -24z m-1676 -9 c-101 -2 -265 -2
-365 0 -101 1 -19 2 182 2 201 0 283 -1 183 -2z m2255 0 c-104 -2 -272 -2
-375 0 -104 1 -19 2 187 2 206 0 291 -1 188 -2z m-2811 -1133 c-43 -8 -111
-52 -139 -91 -11 -14 -25 -43 -33 -65 -8 -21 -14 -31 -15 -21 -1 69 123 188
195 186 27 -1 27 -2 -8 -9z m828 -28 c46 -32 105 -114 105 -146 -1 -14 -5 -10
-14 15 -28 79 -85 133 -165 156 l-46 13 40 -5 c22 -2 58 -17 80 -33z m1413 24
c-79 -21 -135 -74 -164 -154 -7 -20 -13 -29 -14 -19 -1 71 122 187 200 186 16
0 8 -5 -22 -13z m812 -7 c71 -43 131 -119 130 -166 -1 -10 -7 0 -15 21 -8 22
-22 51 -33 65 -28 39 -96 83 -139 91 -35 7 -35 8 -8 9 17 0 46 -9 65 -20z
m-3243 -716 c-1 -98 -2 -20 -2 172 -1 193 1 273 2 178 2 -94 2 -252 0 -350z
m1130 0 c-1 -98 -2 -20 -2 172 -1 193 1 273 2 178 2 -94 2 -252 0 -350z m1120
0 c-1 -98 -2 -20 -2 172 -1 193 1 273 2 178 2 -94 2 -252 0 -350z m1130 0 c-1
-98 -2 -20 -2 172 -1 193 1 273 2 178 2 -94 2 -252 0 -350z m-3336 -277 c15
-20 17 -26 5 -17 -24 20 -46 65 -45 93 1 17 3 14 9 -11 4 -18 18 -47 31 -65z
m2250 0 c15 -20 17 -26 5 -17 -24 20 -46 65 -45 93 1 17 3 14 9 -11 4 -18 18
-47 31 -65z m-1185 26 c-8 -15 -22 -35 -32 -42 -9 -8 -5 3 10 24 14 21 27 48
27 60 1 16 2 17 6 4 2 -9 -3 -30 -11 -46z m2250 0 c-8 -15 -22 -35 -32 -42 -9
-8 -5 3 10 24 14 21 27 48 27 60 1 16 2 17 6 4 2 -9 -3 -30 -11 -46z m1192
-36 c16 -20 16 -20 -2 -6 -20 16 -47 70 -45 92 0 7 7 -5 15 -26 8 -22 22 -49
32 -60z m1058 36 c-8 -15 -22 -35 -32 -42 -9 -8 -5 3 10 24 14 21 27 48 27 60
1 16 2 17 6 4 2 -9 -3 -30 -11 -46z m-5471 -110 c22 -12 36 -21 32 -22 -15 0
-84 39 -97 57 -14 17 -14 17 5 2 11 -9 38 -26 60 -37z m925 43 c0 -8 -92 -65
-104 -65 -6 0 14 15 44 34 64 39 60 37 60 31z m1354 -64 c-4 -5 -91 47 -99 58
-3 5 19 -5 49 -22 29 -18 52 -34 50 -36z m896 64 c0 -8 -92 -65 -104 -65 -6 0
14 15 44 34 64 39 60 37 60 31z m2239 -11 c-14 -17 -89 -58 -95 -51 -2 2 14
12 36 22 22 10 45 24 51 32 6 7 14 13 16 13 3 0 0 -7 -8 -16z m-884 -52 c-5
-5 -63 26 -69 37 -4 5 12 0 33 -12 22 -12 38 -23 36 -25z m-3912 -9 c-106 -2
-280 -2 -385 0 -106 1 -20 2 192 2 212 0 298 -1 193 -2z m2250 0 c-106 -2
-280 -2 -385 0 -106 1 -20 2 192 2 212 0 298 -1 193 -2z m2250 0 c-106 -2
-280 -2 -385 0 -106 1 -20 2 192 2 212 0 298 -1 193 -2z m-6289 -638 c25 -49
66 -115 91 -145 l47 -55 -51 54 c-77 82 -172 287 -170 365 0 11 9 -13 19 -54
11 -41 40 -115 64 -165z m7773 203 c-3 -7 -5 -2 -5 12 0 14 2 19 5 13 2 -7 2
-19 0 -25z m-23 -90 c-38 -118 -146 -286 -225 -353 -13 -11 -2 5 25 35 96 109
171 239 198 342 7 28 14 45 16 39 2 -6 -4 -35 -14 -63z m-7349 -509 c55 -28
89 -47 75 -44 -61 17 -185 92 -260 156 -44 39 -80 72 -80 75 0 2 37 -27 83
-66 53 -46 118 -89 182 -121z m7060 99 c-52 -46 -80 -64 -155 -102 -68 -35
-168 -71 -176 -64 -2 3 22 12 54 22 84 26 200 90 257 140 28 24 52 42 54 41 2
-2 -14 -19 -34 -37z m-6910 -158 c13 -5 14 -9 5 -9 -8 0 -24 4 -35 9 -13 5
-14 9 -5 9 8 0 24 -4 35 -9z m58 -17 c-7 -2 -19 -2 -25 0 -7 3 -2 5 12 5 14 0
19 -2 13 -5z m6500 0 c-7 -2 -19 -2 -25 0 -7 3 -2 5 12 5 14 0 19 -2 13 -5z
m-6405 -10 c-16 -2 -40 -2 -55 0 -16 2 -3 4 27 4 30 0 43 -2 28 -4z m6345 0
c-13 -2 -35 -2 -50 0 -16 2 -5 4 22 4 28 0 40 -2 28 -4z"/>
</g>
</svg>
